<?xml version="1.0" encoding="UTF-8" standalone="no"?>
<svg
   width="1300"
   height="900"
   viewBox="0 0 1300 900"
   version="1.1"
   xml:space="preserve"
   style="clip-rule:evenodd;fill-rule:evenodd;stroke-linejoin:round;stroke-miterlimit:1.41421"
   id="svg43"
   sodipodi:docname="Gloo-Logo.svg"
   inkscape:version="1.1.2 (b8e25be833, 2022-02-05)"
   xmlns:inkscape="http://www.inkscape.org/namespaces/inkscape"
   xmlns:sodipodi="http://sodipodi.sourceforge.net/DTD/sodipodi-0.dtd"
   xmlns:xlink="http://www.w3.org/1999/xlink"
   xmlns="http://www.w3.org/2000/svg"
   xmlns:svg="http://www.w3.org/2000/svg"
   xmlns:serif="http://www.serif.com/"><defs
   id="defs47"><rect
     x="629.9774"
     y="694.79086"
     width="114.77598"
     height="62.877311"
     id="rect2898" /><inkscape:path-effect
     effect="fill_between_many"
     method="originald"
     linkedpaths="#path996,0,1"
     id="path-effect1259"
     join="true"
     close="true"
     autoreverse="true"
     is_visible="true"
     lpeversion="0"
     applied="false" /><filter
     inkscape:collect="always"
     style="color-interpolation-filters:sRGB"
     id="filter38200"
     x="-0.0023068507"
     y="-0.0042886196"
     width="1.0046137"
     height="1.0085772"><feGaussianBlur
       inkscape:collect="always"
       stdDeviation="1.2188107"
       id="feGaussianBlur38202" /></filter></defs><sodipodi:namedview
   id="namedview45"
   pagecolor="#505050"
   bordercolor="#ffffff"
   borderopacity="1"
   inkscape:pageshadow="0"
   inkscape:pageopacity="0"
   inkscape:pagecheckerboard="1"
   showgrid="false"
   inkscape:snap-intersection-paths="false"
   inkscape:snap-midpoints="true"
   inkscape:zoom="0.32851002"
   inkscape:cx="1006.0576"
   inkscape:cy="397.24816"
   inkscape:window-width="1920"
   inkscape:window-height="1057"
   inkscape:window-x="-8"
   inkscape:window-y="-8"
   inkscape:window-maximized="1"
   inkscape:current-layer="layer1"><inkscape:grid
     type="xygrid"
     id="grid1820" /></sodipodi:namedview>
    <g
   id="Layer-1"
   serif:id="Layer 1">
        <g
   transform="translate(654.172,668.359)"
   id="g4">
            
        </g>
        
        
        
        
        
        
        
        
        
    </g><g
   inkscape:groupmode="layer"
   id="layer1"
   inkscape:label="Ferris"
   sodipodi:insensitive="true"
   style="filter:url(#filter38200)"><g
     id="g2008"
     transform="translate(-1.298106)"><g
       transform="translate(1099.87,554.94)"
       id="g8"
       style="clip-rule:evenodd;fill-rule:evenodd;stroke-linejoin:round;stroke-miterlimit:1.41421">
            <g
   id="g1361"><path
     d="m 8.520977,-322.01697 c -117.408557,0 -223.524697,13.35782 -303.438367,35.12159 v -4.91599 c -79.91368,24.32792 -130.81357,58.12623 -130.81357,95.49498 0,5.89124 1.378,11.69329 3.79385,17.3829 l -8.17988,13.88325 c 0,0 -6.57034,8.10349 5.05608,25.20429 10.25559,15.07856 61.64008,74.101528 88.75335,105.008994 11.64589,15.848292 19.55119,25.6056367 20.24173,24.662378 1.08703,-1.495835 -7.23731,-31.243859 -30.36617,-65.186621 -10.79142,-18.230188 -23.93107,-42.382651 -31.66631,-60.221181 21.59821,12.93417 50.39582,24.66722 83.18092,34.76484 v -0.15415 c 79.91367,21.766689 186.02981,35.1216 303.438367,35.1216 134.373823,0 254.932823,-17.49439 335.871023,-45.06991 V -276.94318 C 263.4538,-304.52064 142.8948,-322.01697 8.520977,-322.01697"
     style="clip-rule:evenodd;fill:#a52b00;fill-rule:nonzero;stroke-width:1;stroke-linejoin:round;stroke-miterlimit:1.41421;stroke-dasharray:none"
     id="path2"
     transform="translate(-445.698,113.419)" /><path
     d="m 0,-50.399 -13.433,-27.828 c 0.071,-1.056 0.124,-2.114 0.124,-3.175 0,-31.548 -32.805,-60.62 -87.997,-83.901 V 2.499 c 25.751,-10.864 46.645,-22.984 61.586,-36.037 -4.398,17.683 -19.437,53.455 -31.428,78.611 -19.707,35.981 -26.845,67.303 -25.929,68.853 0.584,0.978 7.307,-9.393 17.222,-26.2 C -56.783,54.85 -13.063,-7.914 -4.325,-23.901 5.574,-42.024 0,-50.399 0,-50.399"
     style="fill:#a52b00;fill-rule:nonzero;stroke:#a52b00;stroke-width:0.1;stroke-miterlimit:1.41421;stroke-dasharray:none;stroke-opacity:1;paint-order:markers stroke fill"
     id="path6" /></g>
        </g><g
       transform="translate(1177.87,277.21)"
       id="g12"
       style="clip-rule:evenodd;fill-rule:evenodd;stroke-linejoin:round;stroke-miterlimit:1.41421">
            <path
   d="m 0,227.175 -88.296,-65.043 c -0.83,-2.895 -1.66,-5.787 -2.516,-8.658 l 29.002,-42.016 c 2.961,-4.274 3.558,-9.829 1.635,-14.703 -1.925,-4.85 -6.136,-8.327 -11.117,-9.179 l -49.043,-8.321 c -1.898,-3.879 -3.89,-7.698 -5.889,-11.484 l 20.604,-47.172 c 2.119,-4.806 1.673,-10.39 -1.139,-14.751 -2.797,-4.383 -7.551,-6.942 -12.617,-6.743 l -49.77,1.809 c -2.577,-3.356 -5.194,-6.68 -7.866,-9.946 l 11.438,-50.56 c 1.159,-5.132 -0.302,-10.508 -3.879,-14.238 -3.555,-3.716 -8.722,-5.254 -13.636,-4.05 l -48.478,11.919 c -3.14,-2.775 -6.33,-5.513 -9.559,-8.196 l 1.745,-51.907 c 0.188,-5.254 -2.262,-10.247 -6.468,-13.163 -4.204,-2.934 -9.54,-3.376 -14.138,-1.196 l -45.226,21.502 c -3.64,-2.09 -7.302,-4.16 -11.005,-6.163 l -7.991,-51.148 c -0.812,-5.181 -4.146,-9.584 -8.815,-11.594 -4.655,-2.022 -9.99,-1.367 -14.077,1.71 l -40.321,30.253 c -3.97,-1.318 -7.958,-2.583 -11.996,-3.792 l -17.38,-48.504 c -1.766,-4.945 -5.842,-8.576 -10.81,-9.597 -4.953,-1.012 -10.048,0.703 -13.483,4.539 l -33.938,37.971 c -4.104,-0.471 -8.21,-0.901 -12.327,-1.259 l -26.208,-44.154 c -2.656,-4.472 -7.344,-7.193 -12.397,-7.193 -5.041,0 -9.739,2.721 -12.372,7.193 l -26.214,44.154 c -4.119,0.358 -8.244,0.788 -12.341,1.259 l -33.943,-37.971 c -3.437,-3.836 -8.551,-5.551 -13.487,-4.539 -4.966,1.035 -9.045,4.652 -10.806,9.597 l -17.393,48.504 c -4.027,1.209 -8.017,2.482 -11.997,3.792 l -40.308,-30.253 c -4.098,-3.088 -9.432,-3.741 -14.098,-1.71 -4.65,2.01 -7.997,6.413 -8.803,11.594 l -7.997,51.148 c -3.7,2.003 -7.363,4.062 -11.014,6.163 l -45.222,-21.502 c -4.592,-2.189 -9.952,-1.738 -14.135,1.196 -4.201,2.916 -6.656,7.909 -6.466,13.163 l 1.736,51.907 c -3.219,2.683 -6.403,5.421 -9.558,8.196 l -48.47,-11.919 c -4.925,-1.195 -10.086,0.334 -13.65,4.05 -3.585,3.73 -5.039,9.106 -3.885,14.238 l 11.415,50.56 c -2.649,3.279 -5.27,6.59 -7.839,9.946 l -49.771,-1.809 c -5.023,-0.148 -9.817,2.36 -12.623,6.743 -2.812,4.361 -3.237,9.945 -1.146,14.751 l 20.619,47.172 c -2.003,3.786 -3.992,7.605 -5.906,11.484 l -49.04,8.321 c -4.982,0.841 -9.183,4.316 -11.12,9.179 -1.925,4.874 -1.3,10.429 1.639,14.703 l 29.01,42.016 c -0.224,0.741 -0.43,1.49 -0.653,2.233 l -82.021,87.122 c 0,0 -12.56,9.851 5.73,33.002 16.14,20.421 98.993,101.376 142.752,143.789 18.483,21.532 31.143,34.866 32.466,33.712 2.088,-1.832 -8.871,-41.006 -45.275,-86.97 -28.06,-41.239 -64.478,-104.666 -55.939,-111.977 0,0 9.714,-12.331 29.204,-21.207 0.713,0.571 -0.737,-0.565 0,0 0,0 411.314,189.736 792.846,3.21 43.584,-7.817 69.968,15.529 69.968,15.529 9.099,5.276 -14.463,70.495 -33.838,113.666 -26.353,49.023 -30.217,87.276 -27.982,88.602 1.409,0.842 10.998,-13.747 24.674,-36.966 C -75.469,370.196 -11.675,280.554 0,258.781 13.239,234.094 0,227.175 0,227.175"
   style="fill:#f74c00;fill-rule:nonzero"
   id="path10" />
        </g><g
       transform="matrix(0.52371586,0,0,-0.50744475,687.75759,600.38517)"
       id="g16"
       style="clip-rule:evenodd;fill-rule:evenodd;stroke-linejoin:round;stroke-miterlimit:1.41421">
            
        <path
   inkscape:original-d="M 0,0"
   inkscape:path-effect="#path-effect1259"
   d="m -130.10954,135.9429 c 0,0 112.849728,-159.482822 223.793652,20.10238 z"
   id="path1261" /><path
   style="fill:none;stroke:#000000;stroke-width:1.28501px;stroke-linecap:butt;stroke-linejoin:miter;stroke-opacity:1"
   d="m -130.10954,135.9429 c 0,0 112.849728,-159.482822 223.793652,20.10238"
   id="path996" /><path
   style="fill:none;stroke:#000000;stroke-width:1.28501px;stroke-linecap:butt;stroke-linejoin:miter;stroke-opacity:1"
   d="M 93.684087,156.04525 -130.10956,135.94288"
   id="path998" /></g><g
       transform="translate(278.418,211.791)"
       id="g20"
       style="clip-rule:evenodd;fill-rule:evenodd;stroke-linejoin:round;stroke-miterlimit:1.41421">
            <path
   d="m 0,253.04 c 0,0 -111.096,-43.25 -129.876,-89.798 0,0 130.391,-103.717 -25.621,-213.886 l -4.229,140.417 c 0,0 -46.226,-44.594 -44.186,-122.683 0,0 -143.773,69.178 24.476,191.577 0,0 5.676,65.698 156.977,145.017 z"
   style="fill:#f74c00;fill-rule:nonzero"
   id="path18" />
        </g><g
       transform="translate(729.948,492.523)"
       id="g24"
       style="clip-rule:evenodd;fill-rule:evenodd;stroke-linejoin:round;stroke-miterlimit:1.41421">
            <path
   d="m 0,-87.016 c 0,0 41.104,-45.009 82.21,0 0,0 32.297,60.013 0,90.016 0,0 -52.85,42.009 -82.21,0 0,0 -35.232,-33.006 0,-90.016"
   style="fill-rule:nonzero"
   id="path22" />
        </g><g
       transform="translate(779.76131,474.49085)"
       id="g28"
       style="clip-rule:evenodd;fill-rule:evenodd;stroke-linejoin:round;stroke-miterlimit:1.41421">
            <path
   d="m 0,0.008 c 0,17.523 -10.329,31.73 -23.07,31.73 -12.739,0 -23.069,-14.207 -23.069,-31.73 0,-17.529 10.33,-31.738 23.069,-31.738 12.741,0 23.07,14.209 23.07,31.738"
   style="fill:#ffffff;fill-rule:nonzero"
   id="path26" />
        </g><g
       transform="translate(546.49,486.263)"
       id="g32"
       style="clip-rule:evenodd;fill-rule:evenodd;stroke-linejoin:round;stroke-miterlimit:1.41421">
            <path
   d="m 0,-93.046 c 0,0 70.508,-31.219 89.753,38.463 0,0 20.159,81.218 -57.902,85.802 0,0 -99.541,-19.172 -31.851,-124.265"
   style="fill-rule:nonzero"
   id="path30" />
        </g><g
       transform="translate(581.903,423.351)"
       id="g36"
       style="clip-rule:evenodd;fill-rule:evenodd;stroke-linejoin:round;stroke-miterlimit:1.41421">
            <path
   d="m 31.154381,52.296854 c 0,18.072 -10.653,32.729 -23.7939999,32.729 -13.137,0 -23.7920001,-14.657 -23.7920001,-32.729 0,-18.078 10.6550001,-32.731 23.7920001,-32.731 13.1409999,0 23.7939999,14.653 23.7939999,32.731"
   style="fill:#ffffff;fill-rule:nonzero"
   id="path34" />
        </g><g
       transform="matrix(-0.09739768,0.99524554,0.99524554,0.09739768,1304.092,487.16353)"
       id="g40"
       style="clip-rule:evenodd;fill-rule:evenodd;stroke-linejoin:round;stroke-miterlimit:1.41421">
            <path
   d="m 0,-296.808 c 0,0 -14.723,58.643 -106.292,120.267 l -25.678,6.018 c 0,0 -83.066,-151.481 -200.749,19.221 0,0 36.677,-21.354 135,4.65 0,0 -45.23,69.226 -136.342,67.099 0,0 87.313,104.749 220.18,-46.554 0,0 140.455,-54.315 151.845,-170.701 z"
   style="fill:#f74c00;fill-rule:nonzero"
   id="path38" />
        </g></g></g><g
   inkscape:groupmode="layer"
   id="layer2"
   inkscape:label="Gloo"
   sodipodi:insensitive="true"><g
     id="g1962"
     transform="rotate(16.650917,-1188.0511,1838.7185)"><path
       style="fill:#c6c5cb"
       d="M 468.483,80.447 C 456.346,73.44 445.352,72.789 437.413,77.402 L 15.715,323.115 c 0.025,-0.015 0.052,-0.026 0.077,-0.041 -7.882,4.536 -12.774,14.238 -12.814,28.05 -0.078,27.708 19.403,61.458 43.522,75.383 12.483,7.207 23.749,7.672 31.733,2.615 -0.224,0.141 -0.44,0.294 -0.669,0.426 L 499.261,183.834 c 7.839,-4.555 12.699,-14.242 12.737,-28.009 0.081,-27.713 -19.402,-61.457 -43.515,-75.378 z"
       id="path1879" /><g
       style="enable-background:new"
       id="g1883">
	<path
   style="fill:#e0e0e2"
   d="M 15.715,323.115 437.411,77.402 c 7.939,-4.613 18.934,-3.962 31.07,3.045 L 46.785,326.16 c -12.137,-7.008 -23.131,-7.659 -31.07,-3.045 z"
   id="path1881" />
</g><path
       style="fill:#eebf00"
       d="m 405.142,117.48 c -12.137,-7.007 -23.131,-7.658 -31.07,-3.045 L 15.715,323.115 c 0.025,-0.015 0.052,-0.026 0.077,-0.041 -7.882,4.536 -12.774,14.238 -12.814,28.05 -0.078,27.708 19.403,61.458 43.522,75.383 12.483,7.207 23.749,7.672 31.733,2.615 -0.224,0.141 -0.44,0.294 -0.669,0.426 l 358.357,-208.68 c 7.839,-4.555 12.699,-14.242 12.737,-28.009 0.08,-27.713 -19.401,-61.456 -43.516,-75.379 z"
       id="path1885" /><g
       style="enable-background:new"
       id="g1889">
	<path
   style="fill:#fece00"
   d="m 15.715,323.115 358.357,-208.68 c 7.939,-4.613 18.934,-3.962 31.07,3.045 L 46.785,326.16 c -12.137,-7.008 -23.131,-7.659 -31.07,-3.045 z"
   id="path1887" />
</g><path
       style="fill:#c6c5cb"
       d="m 200.055,230.971 c -13.371,-7.72 -25.484,-8.436 -34.232,-3.352 L 14.037,317.013 c 0.027,-0.016 0.055,-0.03 0.083,-0.046 -8.685,5 -14.075,15.691 -14.119,30.91 -0.087,30.534 21.382,67.724 47.954,83.065 13.42,7.748 25.573,8.438 34.329,3.294 -0.031,0.019 -0.062,0.041 -0.093,0.059 L 233.978,344.9 c 8.637,-5.02 13.992,-15.692 14.036,-30.861 0.087,-30.534 -21.386,-67.726 -47.959,-83.068 z"
       id="path1891" /><g
       style="enable-background:new"
       id="g1899">
	<path
   style="fill:#e0e0e2"
   d="m 14.037,317.013 151.787,-89.394 c 8.748,-5.083 20.862,-4.368 34.232,3.352 L 48.269,320.366 c -13.371,-7.72 -25.484,-8.436 -34.232,-3.353 z"
   id="path1893" />
	<path
   style="fill:#d8d8da"
   d="m 48.269,320.366 c 26.573,15.341 48.046,52.534 47.959,83.068 -0.087,30.534 -21.7,42.851 -48.273,27.509 C 21.382,415.601 -0.086,378.411 0,347.877 0.087,317.344 21.696,305.024 48.269,320.366 Z"
   id="path1895" />
	<path
   style="fill:#c6c5cb"
   d="m 46.707,340.889 c 17.342,10.012 31.356,34.286 31.299,54.213 C 77.95,415.029 63.844,423.067 46.502,413.055 29.16,403.043 15.149,378.771 15.206,358.844 15.262,338.917 29.364,330.876 46.707,340.889 Z"
   id="path1897" />
</g><g
       id="g1901">
</g><g
       id="g1903">
</g><g
       id="g1905">
</g><g
       id="g1907">
</g><g
       id="g1909">
</g><g
       id="g1911">
</g><g
       id="g1913">
</g><g
       id="g1915">
</g><g
       id="g1917">
</g><g
       id="g1919">
</g><g
       id="g1921">
</g><g
       id="g1923">
</g><g
       id="g1925">
</g><g
       id="g1927">
</g><g
       id="g1929">
</g></g><text
     xml:space="preserve"
     style="font-style:normal;font-variant:normal;font-weight:normal;font-stretch:normal;font-size:40px;line-height:1.25;font-family:'Amiri Quran';-inkscape-font-specification:'Amiri Quran';fill:#000000;fill-opacity:1;stroke:none"
     x="617.75787"
     y="696.32288"
     id="text29160"><tspan
       sodipodi:role="line"
       id="tspan29158"
       x="617.75787"
       y="696.32288"
       style="font-style:normal;font-variant:normal;font-weight:normal;font-stretch:normal;font-family:'Source Sans Pro';-inkscape-font-specification:'Source Sans Pro'" /></text><text
     xml:space="preserve"
     id="text2896"
     style="font-style:normal;font-weight:normal;font-size:40px;line-height:1.25;font-family:sans-serif;white-space:pre;shape-inside:url(#rect2898);fill:#000000;fill-opacity:1;stroke:none" /><text
     xml:space="preserve"
     style="font-style:normal;font-variant:normal;font-weight:normal;font-stretch:normal;font-size:64px;line-height:1.25;font-family:'Alfa Slab One';-inkscape-font-specification:'Alfa Slab One, Normal';font-variant-ligatures:normal;font-variant-caps:normal;font-variant-numeric:normal;font-variant-east-asian:normal;fill:#000000;fill-opacity:1;stroke:none"
     id="text4862"
     y="878.58704"
     x="397.18579"
     transform="matrix(0.95854391,-0.22416616,0.31112217,0.97048964,0,0)"><tspan
       sodipodi:role="line"
       id="tspan4860"
       x="397.18579"
       y="878.58704">GLOO</tspan></text><text
     xml:space="preserve"
     style="font-style:normal;font-weight:normal;font-size:40px;line-height:1.25;font-family:sans-serif;fill:#000000;fill-opacity:1;stroke:none"
     id="text25052"
     transform="matrix(0.23861482,-0.72778698,0.49211541,0.35288625,207.1391,666.64983)"><textPath
       xlink:href="#path1897"
       id="textPath31353"><tspan
         id="tspan25050"
         style="font-style:italic;font-variant:normal;font-weight:normal;font-stretch:normal;font-size:24px;font-family:Candara;-inkscape-font-specification:'Candara, Italic';font-variant-ligatures:normal;font-variant-caps:normal;font-variant-numeric:normal;font-variant-east-asian:normal">moduler</tspan></textPath></text></g>
</svg>
